<svg width="54" height="54" viewBox="0 0 54 54" fill="none" xmlns="http://www.w3.org/2000/svg">
<path fill-rule="evenodd" clip-rule="evenodd" d="M26.7675 53.9098C41.4788 53.8933 53.3913 41.9541 53.3748 27.2428C53.3584 12.5315 41.4192 0.619018 26.7079 0.635479C11.9966 0.651939 0.0840836 12.5911 0.100544 27.3024C0.117005 42.0137 12.0562 53.9262 26.7675 53.9098Z" fill="#F2F5F7"/>
<mask id="mask0_4_20" style="mask-type:luminance" maskUnits="userSpaceOnUse" x="0" y="0" width="54" height="54">
<path fill-rule="evenodd" clip-rule="evenodd" d="M26.7675 53.9098C41.4788 53.8933 53.3913 41.9541 53.3748 27.2428C53.3584 12.5315 41.4192 0.619018 26.7079 0.635479C11.9966 0.651939 0.0840836 12.5911 0.100544 27.3024C0.117005 42.0137 12.0562 53.9262 26.7675 53.9098Z" fill="white"/>
</mask>
<g mask="url(#mask0_4_20)">
<path fill-rule="evenodd" clip-rule="evenodd" d="M17.5793 21.6785C15.3723 20.9513 13.7771 18.8635 13.7744 16.3995L15.7268 16.6843C15.1469 15.8058 14.8086 14.7519 14.8073 13.6183L17.5707 14.0214L17.5691 12.5727L32.9378 14.8893C34.6273 15.144 35.8779 16.6032 35.8798 18.3222L35.8866 24.455C37.0787 24.7623 37.9604 25.8497 37.9618 27.1451C37.9633 28.4405 37.084 29.53 35.8927 29.8399L35.8939 30.97L35.8795 30.97C35.7082 34.1239 33.9593 36.8559 31.4125 38.3798L31.4143 40.0101L34.5226 40.0067C36.3392 40.0046 37.8298 41.4142 37.9694 43.2065C41.2983 43.7013 43.8548 46.5861 43.8587 50.0739L43.8692 59.4565L9.67822 59.4948L9.66773 50.1121C9.66369 46.5035 12.3937 43.5341 15.8905 43.188C16.0465 41.416 17.5246 40.0257 19.3266 40.0237L22.0895 40.0206L22.0877 38.3902C19.5375 36.872 17.7825 34.1439 17.6041 30.9905L17.5897 30.9905L17.5885 29.948C16.0626 29.9497 14.8242 28.7064 14.8225 27.171C14.8208 25.6356 16.0564 24.3896 17.5823 24.3879L17.5793 21.6785Z" fill="#C2D1D9"/>
</g>
</svg>
