<svg width="71" height="12" viewBox="0 0 71 12" fill="none" xmlns="http://www.w3.org/2000/svg">
<path d="M11.4885 4.47364L8.09223 4.00485L6.57094 1.05959C6.52939 0.978947 6.46111 0.913706 6.3768 0.874098C6.16538 0.774437 5.90868 0.857972 5.80325 1.06045L4.28855 4.00911L0.893323 4.4855C0.799716 4.49841 0.714167 4.54077 0.648704 4.60488C0.569564 4.68295 0.526023 4.7879 0.52765 4.89669C0.529276 5.00547 0.575937 5.10919 0.657378 5.18504L3.11682 7.47608L2.54 10.7157C2.52647 10.7911 2.53526 10.8685 2.56538 10.9394C2.5955 11.0102 2.64573 11.0715 2.71039 11.1163C2.77505 11.1612 2.85154 11.1878 2.9312 11.1932C3.01085 11.1985 3.09048 11.1824 3.16105 11.1466L6.19667 9.61402L9.2357 11.1398C9.31867 11.182 9.41498 11.196 9.50725 11.1805C9.73992 11.1418 9.89616 10.9303 9.85579 10.7075L9.27172 7.46919L11.726 5.17265C11.7928 5.10982 11.8369 5.02781 11.8501 4.93814C11.886 4.71397 11.7226 4.50668 11.4885 4.47364V4.47364Z" fill="#FECB1C"/>
<path d="M26.5679 4.45594L23.1716 3.98715L21.6503 1.04189C21.6087 0.961247 21.5405 0.896006 21.4561 0.856398C21.2447 0.756737 20.988 0.840272 20.8826 1.04275L19.3679 3.99141L15.9727 4.4678C15.8791 4.48071 15.7935 4.52307 15.7281 4.58718C15.6489 4.66524 15.6054 4.7702 15.607 4.87899C15.6086 4.98777 15.6553 5.09149 15.7367 5.16734L18.1962 7.45838L17.6193 10.698C17.6058 10.7734 17.6146 10.8508 17.6447 10.9217C17.6748 10.9925 17.7251 11.0538 17.7897 11.0986C17.8544 11.1435 17.9309 11.1701 18.0105 11.1755C18.0902 11.1808 18.1698 11.1647 18.2404 11.1289L21.276 9.59632L24.315 11.1221C24.398 11.1643 24.4943 11.1783 24.5866 11.1628C24.8193 11.1241 24.9755 10.9126 24.9351 10.6898L24.3511 7.45149L26.8054 5.15495C26.8722 5.09212 26.9162 5.01011 26.9295 4.92044C26.9654 4.69627 26.802 4.48898 26.5679 4.45594V4.45594Z" fill="#FECB1C"/>
<path d="M41.1193 4.43964L37.723 3.97085L36.2017 1.02559C36.1601 0.944951 36.0918 0.87971 36.0075 0.840101C35.7961 0.740441 35.5394 0.823976 35.434 1.02645L33.9193 3.97511L30.5241 4.4515C30.4305 4.46441 30.3449 4.50677 30.2794 4.57088C30.2003 4.64895 30.1568 4.75391 30.1584 4.86269C30.16 4.97148 30.2067 5.07519 30.2881 5.15104L32.7476 7.44208L32.1707 10.6817C32.1572 10.7571 32.166 10.8345 32.1961 10.9054C32.2262 10.9762 32.2765 11.0375 32.3411 11.0823C32.4058 11.1272 32.4823 11.1538 32.5619 11.1592C32.6416 11.1645 32.7212 11.1484 32.7918 11.1126L35.8274 9.58002L38.8664 11.1058C38.9494 11.148 39.0457 11.162 39.138 11.1465C39.3707 11.1078 39.5269 10.8963 39.4865 10.6735L38.9025 7.4352L41.3568 5.13866C41.4236 5.07583 41.4676 4.99381 41.4809 4.90415C41.5167 4.67998 41.3533 4.47268 41.1193 4.43964V4.43964Z" fill="#FECB1C"/>
<path d="M55.6705 4.42335L52.2742 3.95456L50.7529 1.00929C50.7114 0.928654 50.6431 0.863413 50.5588 0.823805C50.3474 0.724145 50.0907 0.807679 49.9853 1.01015L48.4706 3.95881L45.0753 4.4352C44.9817 4.44811 44.8962 4.49047 44.8307 4.55458C44.7516 4.63265 44.708 4.73761 44.7097 4.8464C44.7113 4.95518 44.7579 5.0589 44.8394 5.13475L47.2988 7.42579L46.722 10.6654C46.7085 10.7408 46.7173 10.8182 46.7474 10.8891C46.7775 10.9599 46.8277 11.0212 46.8924 11.0661C46.9571 11.1109 47.0335 11.1375 47.1132 11.1429C47.1929 11.1482 47.2725 11.1321 47.3431 11.0963L50.3787 9.56373L53.4177 11.0895C53.5007 11.1317 53.597 11.1457 53.6893 11.1302C53.9219 11.0915 54.0782 10.88 54.0378 10.6572L53.4537 7.4189L55.908 5.12236C55.9748 5.05953 56.0189 4.97751 56.0322 4.88785C56.068 4.66368 55.9046 4.45638 55.6705 4.42335V4.42335Z" fill="#FECB1C"/>
<path d="M66.6435 4.03232L66.6923 4.12676L66.7976 4.14129L70.1933 4.60999C70.1934 4.61001 70.1935 4.61002 70.1936 4.61004C70.3247 4.62869 70.3972 4.73873 70.3812 4.83918L70.3808 4.84154C70.3746 4.88351 70.3538 4.92398 70.3193 4.95652C70.3192 4.95661 70.3191 4.95669 70.319 4.95677L67.8651 7.25295L67.7836 7.32918L67.8034 7.43898L68.3875 10.6773L68.3875 10.6775C68.406 10.7794 68.3355 10.8904 68.207 10.9117L68.2068 10.9118C68.1564 10.9202 68.1047 10.9122 68.062 10.8905L68.0611 10.8901L65.022 9.36426L64.9298 9.31797L64.8377 9.36447L61.8021 10.8971L61.8018 10.8972C61.7644 10.9162 61.7216 10.925 61.6783 10.9221C61.6351 10.9192 61.5944 10.9048 61.5606 10.8814C61.527 10.858 61.502 10.8269 61.4874 10.7926C61.4728 10.7582 61.4687 10.7212 61.4751 10.6853L61.4752 10.685L62.052 7.44542L62.0716 7.33557L61.9899 7.25952L59.5305 4.96848L59.5305 4.96847C59.4888 4.92968 59.4667 4.87858 59.466 4.82704C59.4652 4.77561 59.4856 4.72418 59.5258 4.68445C59.5597 4.65134 59.6047 4.62884 59.6547 4.62194L59.6552 4.62187L63.0504 4.14548L63.1557 4.13071L63.2043 4.03617L64.7184 1.08852C64.7185 1.08838 64.7186 1.08824 64.7187 1.0881C64.7715 0.987124 64.9073 0.938471 65.0228 0.992899L65.023 0.993009C65.0676 1.01395 65.1019 1.04757 65.1221 1.08687L65.1222 1.08705L66.6435 4.03232ZM66.8256 3.93826L65.3043 0.992998L59.6267 4.41891C59.5331 4.43182 59.4476 4.47418 59.3821 4.53829C59.303 4.61636 59.2594 4.72131 59.261 4.8301C59.2627 4.93889 59.3093 5.0426 59.3908 5.11845L61.8502 7.40949L61.2734 10.6491C61.2599 10.7245 61.2687 10.8019 61.2988 10.8728C61.3289 10.9436 61.3791 11.0049 61.4438 11.0498C61.5084 11.0946 61.5849 11.1212 61.6646 11.1266C61.7442 11.1319 61.8239 11.1158 61.8944 11.08L64.9301 9.54743L67.9691 11.0732C68.0521 11.1154 68.1484 11.1294 68.2406 11.1139C68.4733 11.0752 68.6296 10.8637 68.5892 10.6409L68.0051 7.4026L70.4594 5.10607C70.5262 5.04323 70.5703 4.96122 70.5835 4.87155C70.6194 4.64738 70.456 4.44009 70.2219 4.40705L66.8256 3.93826Z" stroke="#FECB1C" stroke-width="0.409908"/>
</svg>
